<svg width="47" height="38" fill="none" xmlns="http://www.w3.org/2000/svg"><path d="M41.242 13.51a.783.783 0 00-.51-.188H32.9V7.055a.784.784 0 00-.784-.783h-3.133v1.566h2.35v24.284h-18.87a4.695 4.695 0 00-.565-1.567h14.735a.783.783 0 00.783-.783v-14.1h1.567a.783.783 0 00.783-.784v-4.7a.783.783 0 00-.783-.783h-8.53l3.391-2.648.079-.062a3.922 3.922 0 00-5.546-5.546l-.063.078-1.864 2.397-1.864-2.397-.063-.078a3.922 3.922 0 00-5.546 5.546l.078.062 3.4 2.648H3.917a.783.783 0 00-.784.783v4.7a.783.783 0 00.784.784h1.566V28.84a4.7 4.7 0 00-2.279 3.282H1.567V7.839h2.35V6.272H.783A.783.783 0 000 7.055v25.85a.784.784 0 00.783.784h2.421a4.7 4.7 0 009.259 0h22.074a4.7 4.7 0 009.259 0h2.42a.783.783 0 00.784-.784v-14.1c0-.229-.1-.446-.274-.595l-5.484-4.7zM13.316 28.988h-2.89a4.7 4.7 0 00-2.593-.783 5.194 5.194 0 00-.784.07V15.673h6.267v13.316zm4.7 0h-3.133V15.672h3.133v13.316zm7.833 0h-6.266V15.672h6.266v13.316zM10.057 5.551a2.349 2.349 0 010-3.29 2.413 2.413 0 013.29 0L15.8 5.394a.783.783 0 001.238 0l2.451-3.133a2.413 2.413 0 013.29 0 2.35 2.35 0 010 3.29l-3.133 2.452a3.916 3.916 0 00-6.501 0L10.057 5.55zM18.8 10.19a2.35 2.35 0 11-4.7 0 2.35 2.35 0 014.7 0zM4.7 14.105v-3.133h7.912a3.916 3.916 0 007.676 0H28.2v3.133H4.7zm3.133 21.933a3.135 3.135 0 010-6.266 3.135 3.135 0 010 6.267zm31.334 0a3.135 3.135 0 110-6.269 3.135 3.135 0 010 6.27zm6.266-7.833h-1.566v1.567h1.566v2.35h-1.637a4.7 4.7 0 00-9.259 0H32.9V14.889h7.544l4.99 4.276v9.04z" fill="#fff"/></svg>