<svg width="44" height="55" fill="none" xmlns="http://www.w3.org/2000/svg"><g filter="url(#filter0_d_35_963)" fill="#fff"><path d="M15.672 29.702l-4.931-2.247a.82.82 0 00-1.157.744v4.494c0 .32.187.611.479.744l4.93 2.246a.814.814 0 00.782-.057.816.816 0 00.375-.687v-4.494c0-.32-.187-.61-.478-.743zm-1.157 3.967l-3.296-1.502V29.47l3.296 1.502v2.697zm19.489-6.157a.815.815 0 00-.782-.056l-4.93 2.246a.818.818 0 00-.479.744v4.494a.816.816 0 001.156.744l4.931-2.246a.816.816 0 00.48-.744v-4.495a.817.817 0 00-.376-.687zm-1.26 4.655l-3.296 1.502v-2.697l3.297-1.502v2.697z"/><path d="M39.907 17.752c-.01-.027-.022-.05-.034-.075a.817.817 0 00-.12-.178c-.016-.018-.03-.038-.047-.054a.807.807 0 00-.22-.153l-.02-.01-8.493-3.867V8.582C30.973 3.85 27.123 0 22.391 0c-4.733 0-8.583 3.85-8.583 8.582v3.679h-2.452a.817.817 0 00-.531 1.437l.535.459-6.88 3.134a.81.81 0 00-.221.153c-.018.017-.032.037-.048.055a.795.795 0 00-.12.178c-.012.025-.024.048-.034.074a.815.815 0 00-.057.285v20.328c0 .32.187.61.479.744l17.164 7.818c.013.006.026.004.038.008a.808.808 0 00.302.066l.006-.002a.812.812 0 00.292-.063c.013-.005.027-.003.04-.009l17.164-7.818a.817.817 0 00.48-.745V18.036a.81.81 0 00-.058-.284zm-25.281-3.857a.817.817 0 00.817-.817V8.582a6.956 6.956 0 016.947-6.947 6.956 6.956 0 016.948 6.947v7.765h-3.27V8.582a3.682 3.682 0 00-3.678-3.678 3.682 3.682 0 00-3.678 3.678v4.496c0 .451.366.817.818.817h1.06l-3.512 3.01-3.325-2.85c-.01-.027-.007-.055-.019-.081-.014-.03-.04-.05-.057-.079h.949zm-1.898 1.435l3.818 3.272a.812.812 0 001.063 0l5.722-4.904a.816.816 0 00-.532-1.438h-2.452V8.582c0-1.126.916-2.043 2.043-2.043 1.128 0 2.044.916 2.044 2.043v8.583c0 .451.366.817.817.817h4.905a.817.817 0 00.817-.817V15.21l6.202 2.825-15.193 6.92-15.193-6.92 5.94-2.706zM5.634 37.837V19.306l15.53 7.073v18.532l-15.53-7.074zM22.8 44.911V26.38l15.53-7.074v18.531L22.8 44.911z"/></g><defs><filter id="filter0_d_35_963" x="0" y="0" width="43.964" height="55" filterUnits="userSpaceOnUse" color-interpolation-filters="sRGB"><feFlood flood-opacity="0" result="BackgroundImageFix"/><feColorMatrix in="SourceAlpha" values="0 0 0 0 0 0 0 0 0 0 0 0 0 0 0 0 0 0 127 0" result="hardAlpha"/><feOffset dy="4"/><feGaussianBlur stdDeviation="2"/><feComposite in2="hardAlpha" operator="out"/><feColorMatrix values="0 0 0 0 0 0 0 0 0 0 0 0 0 0 0 0 0 0 0.25 0"/><feBlend in2="BackgroundImageFix" result="effect1_dropShadow_35_963"/><feBlend in="SourceGraphic" in2="effect1_dropShadow_35_963" result="shape"/></filter></defs></svg>