<svg width="48" height="48" fill="none" xmlns="http://www.w3.org/2000/svg"><path d="M44.952 17.877a2.98 2.98 0 00-2.975 2.975v4.533a2.841 2.841 0 00-2.856.697l-5.942 5.942c-5.319 1.818-6.38 7.366-6.587 9.332h-.082a.744.744 0 00-.741.742v4.643a.734.734 0 00.742.742l12.04-.03a.744.744 0 00.74-.741v-4.615a.744.744 0 00-.74-.741h-.053a2.69 2.69 0 01.675-1.187l7.53-7.53a4.135 4.135 0 001.216-2.944v-8.843a2.968 2.968 0 00-2.967-2.974zm-7.144 28.1L27.252 46v-3.16h10.556v3.138zm8.635-16.275c0 .72-.282 1.387-.786 1.9l-7.53 7.521a4.14 4.14 0 00-1.157 2.203h-8.88c.216-1.832 1.21-6.498 5.727-7.952a.694.694 0 00.297-.185l6.068-6.068a1.357 1.357 0 011.914 0 1.36 1.36 0 010 1.914l-3.85 3.842a.739.739 0 101.046 1.046l3.85-3.843a2.848 2.848 0 00.327-3.62v-5.622a1.49 1.49 0 011.49-1.492c.824 0 1.484.683 1.484 1.506v8.85zM21.86 41.363h-.082c-.208-1.965-1.268-7.514-6.587-9.332L9.249 26.09a2.838 2.838 0 00-2.856-.697V20.86a2.98 2.98 0 00-2.975-2.974 2.966 2.966 0 00-2.967 2.967v8.85c0 1.112.43 2.158 1.224 2.944l7.53 7.53c.333.333.555.741.674 1.186h-.052a.744.744 0 00-.741.742v4.614c0 .408.333.742.741.742l12.04.03a.78.78 0 00.527-.215.734.734 0 00.215-.527v-4.643a.75.75 0 00-.75-.742zM2.72 31.601a2.683 2.683 0 01-.786-1.899v-8.85a1.491 1.491 0 012.982 0v5.623a2.849 2.849 0 00.327 3.62l3.85 3.843a.739.739 0 101.046-1.046l-3.85-3.843a1.357 1.357 0 010-1.914 1.357 1.357 0 011.914 0l6.068 6.068a.774.774 0 00.297.186c4.57 1.469 5.526 6.112 5.726 7.952H11.4a4.135 4.135 0 00-1.157-2.203L2.721 31.6zM21.118 46l-10.556-.023v-3.13h10.556V46zm11.527-33.515c0-4.666-3.79-8.457-8.456-8.457-4.666 0-8.457 3.791-8.457 8.457s3.791 8.457 8.457 8.457 8.456-3.79 8.456-8.457zm-8.456 6.973c-3.843 0-6.973-3.13-6.973-6.973s3.13-6.973 6.973-6.973 6.973 3.13 6.973 6.973-3.13 6.973-6.973 6.973z" fill="#fff"/><path d="M29.366 30.088c.134.23.378.37.646.37h.066a.732.732 0 00.63-.482l1.529-4.161 4.37.756a.74.74 0 00.77-1.098l-3.426-5.934c.437-.148.823-.379 1.068-.794.423-.734.111-1.587-.156-2.344-.14-.386-.326-.912-.274-1.12.052-.185.482-.549.764-.786.63-.527 1.335-1.12 1.335-1.996 0-.875-.712-1.469-1.335-1.995-.29-.237-.72-.6-.764-.786-.06-.208.133-.734.274-1.12.275-.757.586-1.61.156-2.344-.43-.742-1.335-.906-2.13-1.047-.4-.066-.941-.163-1.082-.311-.148-.148-.245-.69-.312-1.09-.14-.802-.304-1.7-1.046-2.13-.734-.422-1.587-.118-2.344.156-.386.141-.912.327-1.12.275-.185-.052-.549-.482-.786-.772C25.672.705 25.079 0 24.203 0c-.875 0-1.468.712-1.995 1.335-.237.29-.6.72-.786.772-.208.052-.734-.134-1.12-.275-.757-.274-1.61-.586-2.344-.156-.742.43-.905 1.336-1.046 2.13-.067.4-.164.942-.312 1.09-.148.148-.69.245-1.09.311-.817.127-1.714.283-2.144 1.024-.423.735-.112 1.588.155 2.344.141.386.327.913.275 1.12-.052.186-.482.55-.772.787-.63.526-1.335 1.12-1.335 1.995s.712 1.47 1.335 1.996c.29.237.72.6.764.786.06.207-.133.734-.274 1.12-.275.757-.586 1.61-.156 2.344.237.415.63.646 1.068.794L11 25.45a.733.733 0 00.037.794.727.727 0 00.735.304l4.37-.757 1.527 4.162c.097.267.35.46.63.482h.067c.26 0 .512-.14.646-.37l3.501-6.069c.453.505.972.965 1.677.965.705 0 1.224-.46 1.676-.965l3.501 6.09zm2.515-5.846a.746.746 0 00-.823.475l-1.195 3.257-2.922-5.067c.014-.008.03-.022.037-.022.207-.052.734.133 1.12.274.757.275 1.61.579 2.344.156.742-.43.905-1.335 1.046-2.129.067-.4.163-.942.312-1.083.096-.096.356-.163.63-.223l2.863 4.963-3.412-.6zm-13.36 3.732l-1.194-3.257a.746.746 0 00-.824-.475l-3.419.594 2.87-4.963c.282.06.542.134.631.223.148.148.245.69.312 1.09.14.802.304 1.7 1.046 2.13.734.422 1.587.118 2.344-.156.386-.141.912-.327 1.12-.275.015 0 .03.022.044.022l-2.93 5.067zM24.19 23.5c-.186 0-.624-.527-.861-.81-.445-.526-.905-1.075-1.543-1.245a1.687 1.687 0 00-.467-.06c-.512 0-1.031.186-1.536.371-.326.119-.942.341-1.098.267-.14-.081-.267-.771-.326-1.105-.119-.69-.245-1.402-.727-1.877-.475-.474-1.187-.6-1.877-.727-.333-.06-1.024-.178-1.105-.326-.074-.156.148-.772.267-1.098.237-.66.49-1.35.312-2.01-.171-.638-.72-1.098-1.247-1.543-.281-.238-.808-.683-.808-.86 0-.186.526-.624.808-.861.527-.446 1.076-.906 1.247-1.543.178-.66-.075-1.343-.312-2.01-.119-.327-.341-.943-.267-1.099.082-.14.772-.267 1.105-.326.69-.119 1.402-.245 1.877-.727.475-.475.6-1.187.727-1.877.06-.333.178-1.024.326-1.105.156-.067.772.148 1.098.267.66.237 1.35.49 2.01.312.639-.171 1.099-.72 1.543-1.247.238-.281.683-.808.861-.808.178 0 .623.526.86.808.446.527.906 1.076 1.544 1.247.66.178 1.342-.075 2.01-.312.326-.119.942-.341 1.098-.267.148.082.267.772.326 1.105.12.69.245 1.402.727 1.877.475.475 1.187.6 1.877.72.334.059 1.024.177 1.105.326.074.156-.148.771-.267 1.098-.237.66-.49 1.35-.311 2.01.17.638.72 1.098 1.246 1.543.282.237.809.675.809.86 0 .186-.527.624-.81.861-.526.445-1.075.905-1.245 1.543-.178.66.074 1.343.311 2.01.119.334.341.943.267 1.098-.081.141-.771.267-1.105.327-.69.119-1.402.245-1.877.727-.474.475-.6 1.187-.727 1.877-.06.333-.178 1.023-.326 1.105-.156.066-.772-.148-1.098-.267-.66-.238-1.35-.49-2.01-.312-.638.171-1.098.72-1.543 1.246-.245.29-.683.817-.868.817z" fill="#fff"/><path d="M27.72 9.065l-5.267 5.267-1.795-1.796a.739.739 0 10-1.046 1.046l2.314 2.315a.729.729 0 00.527.215.76.76 0 00.526-.215l5.794-5.794a.739.739 0 000-1.046.748.748 0 00-1.053.008z" fill="#fff"/></svg>