<svg width="43" height="38" fill="none" xmlns="http://www.w3.org/2000/svg"><path d="M40.185 38H3.593a2.816 2.816 0 01-2.815-2.815V2.815A2.816 2.816 0 013.593 0h36.592A2.816 2.816 0 0143 2.815v32.37A2.816 2.816 0 0140.185 38zM3.593 1.408a1.407 1.407 0 00-1.408 1.407v32.37a1.408 1.408 0 001.408 1.408h36.592a1.407 1.407 0 001.407-1.407V2.816a1.407 1.407 0 00-1.407-1.408H3.593z" fill="#fff"/><path d="M6.408 7.037a2.112 2.112 0 110-4.223 2.112 2.112 0 010 4.223zm0-2.815a.704.704 0 100 1.408.704.704 0 000-1.408zm5.629 2.815a2.11 2.11 0 110-4.221 2.11 2.11 0 010 4.22zm0-2.815a.704.704 0 100 1.408.704.704 0 000-1.408zm30.259 5.631H1.481a.704.704 0 010-1.408h40.815a.704.704 0 010 1.408z" fill="#fff"/><path d="M36.667 9.852a.704.704 0 01-.704-.704V.704a.704.704 0 111.407 0v8.444a.703.703 0 01-.703.704zM21.889 34.481a8.443 8.443 0 118.444-8.444 8.454 8.454 0 01-8.444 8.444zm0-15.48a7.037 7.037 0 107.037 7.036A7.044 7.044 0 0021.889 19z" fill="#fff"/><path d="M24.703 19a.704.704 0 01-.703-.703v-2.815a2.11 2.11 0 10-4.222 0v2.815a.704.704 0 01-1.408 0v-2.815a3.518 3.518 0 117.037 0v2.815a.704.704 0 01-.704.703zm-2.814 8.444a2.815 2.815 0 110-5.629 2.815 2.815 0 010 5.63zm0-4.222a1.406 1.406 0 100 2.813 1.406 1.406 0 000-2.813z" fill="#fff"/><path d="M21.889 30.259a.703.703 0 01-.704-.704v-2.814a.704.704 0 111.408 0v2.814a.704.704 0 01-.704.704z" fill="#fff"/></svg>