<svg viewBox="0 0 512 512" xmlns="http://www.w3.org/2000/svg" xmlns:xlink="http://www.w3.org/1999/xlink"><style>:root&gt;svg{display:none}:root&gt;svg:target{display:block}</style><svg viewBox="0 0 19 17" id="_twitter" xmlns="http://www.w3.org/2000/svg"><path d="M18.571 2.294a7.42 7.42 0 01-2.19.63A3.974 3.974 0 0018.058.721a7.416 7.416 0 01-2.421.964A3.719 3.719 0 0012.859.432c-2.105 0-3.81 1.78-3.81 3.974 0 .31.034.613.099.907-3.166-.167-5.974-1.752-7.853-4.156a4.085 4.085 0 00-.516 2.002c0 1.38.671 2.594 1.695 3.31a3.73 3.73 0 01-1.728-.497v.047c0 1.928 1.314 3.534 3.056 3.9a3.613 3.613 0 01-1.002.142 3.87 3.87 0 01-.718-.073c.485 1.575 1.892 2.727 3.559 2.761A7.456 7.456 0 010 14.395a10.493 10.493 0 005.841 1.783c7.008 0 10.841-6.057 10.841-11.312 0-.172-.005-.344-.013-.513a7.718 7.718 0 001.902-2.06z"/></svg><svg viewBox="0 0 14 15" id="ava" xmlns="http://www.w3.org/2000/svg"><path d="M13.493 14.723H.248A.249.249 0 010 14.474v-.663c0-3.796 3.082-6.885 6.87-6.885 3.789 0 6.87 3.089 6.87 6.885v.663a.249.249 0 01-.248.25zM.497 14.226h12.747v-.415c0-3.522-2.859-6.387-6.373-6.387-3.515 0-6.374 2.865-6.374 6.387v.415z"/><path d="M6.87 7.382A3.692 3.692 0 016.87 0a3.692 3.692 0 010 7.382zm0-6.884a3.194 3.194 0 000 6.387 3.194 3.194 0 000-6.387z"/></svg><svg viewBox="0 0 20 19" id="cart" xmlns="http://www.w3.org/2000/svg"><path d="M18.972 2.226H4.369l-.06-.208A2.158 2.158 0 002.244.458H.423a.424.424 0 100 .848h1.82a1.307 1.307 0 011.251.944l2.57 9.014a2.83 2.83 0 002.71 2.047h9.357a.424.424 0 100-.848H8.775a1.98 1.98 0 01-1.896-1.431l-.172-.602H16a3.399 3.399 0 003.396-3.396V2.65a.424.424 0 00-.424-.424zm-.424 4.808A2.55 2.55 0 0116 9.582H6.466l-1.334-4.68h9.164a.424.424 0 100-.847H4.89l-.28-.981h13.938v3.96zm-10.501 7.59a1.985 1.985 0 100 3.97 1.985 1.985 0 000-3.97zm0 3.121a1.137 1.137 0 110-2.273 1.137 1.137 0 010 2.273zm8.523-3.121a1.985 1.985 0 100 3.969 1.985 1.985 0 000-3.97zm0 3.121a1.137 1.137 0 110-2.273 1.137 1.137 0 010 2.273z"/><path d="M15.985 4.78c.08.078.186.122.297.124a.427.427 0 00.395-.263.413.413 0 00-.094-.462.417.417 0 00-.598 0 .413.413 0 00-.093.462.44.44 0 00.093.14z"/></svg><svg viewBox="0 0 17 15" id="cart_mini" xmlns="http://www.w3.org/2000/svg"><path d="M1.351.751a.376.376 0 010-.751h2.424c.167 0 .308.108.357.26l1.12 2.924h11.373a.376.376 0 01.352.504l-1.982 6.603a.376.376 0 01-.36.269H7.442a.523.523 0 00-.525.525v.01a.523.523 0 00.525.524h6.521a.376.376 0 010 .751h-6.52c-.352 0-.671-.143-.903-.374h.001v-.002a1.27 1.27 0 01-.375-.9v-.01a1.276 1.276 0 011.276-1.275h6.915l1.764-5.874H5.54l1.81 4.72a.375.375 0 11-.702.268L4.652 3.71a.405.405 0 01-.013-.034L3.518.75H1.35zm11.606 12.464a.833.833 0 110 1.666.833.833 0 010-1.666zm-5.048 0a.832.832 0 110 1.665.832.832 0 010-1.665z"/></svg><svg viewBox="0 0 512 512" id="close" xmlns="http://www.w3.org/2000/svg"><path d="M268.064 256.75l138.593-138.593a8 8 0 10-11.314-11.313L256.75 245.436 118.157 106.843a8 8 0 00-11.313 0 7.998 7.998 0 000 11.313L245.436 256.75 106.843 395.343a7.999 7.999 0 000 11.314c1.562 1.562 3.609 2.343 5.657 2.343s4.095-.781 5.657-2.343L256.75 268.064l138.593 138.593c1.563 1.562 3.609 2.343 5.657 2.343s4.095-.781 5.657-2.343a8 8 0 000-11.314L268.064 256.75z" id="ecross_copy"/></svg><svg viewBox="0 0 16 15" id="com" xmlns="http://www.w3.org/2000/svg"><path d="M0 10.995h7.83l3.329 3.13v-3.13h3.905V0H0v10.995zM.372.373h14.32v10.25h-3.905v2.646l-2.809-2.647H.372V.372z"/></svg><svg viewBox="0 0 18 18" id="faceb" xmlns="http://www.w3.org/2000/svg"><path d="M8.929 0C3.998 0 0 4.027 0 8.993c0 4.509 3.298 8.232 7.594 8.882v-6.499h-2.21V9.013h2.21V7.439c0-2.604 1.26-3.747 3.408-3.747 1.03 0 1.574.078 1.831.112v2.063h-1.465c-.912 0-1.231.872-1.231 1.854v1.292h2.673l-.362 2.363h-2.311v6.518c4.358-.595 7.72-4.348 7.72-8.9C17.857 4.026 13.86 0 8.93 0z"/></svg><svg viewBox="0 0 17 15" id="favorites" xmlns="http://www.w3.org/2000/svg"><path fill-rule="evenodd" clip-rule="evenodd" d="M8.5 3.267c.415-.717.854-1.285 1.38-1.703.709-.564 1.55-.847 2.66-.847A4.456 4.456 0 0117 5.157c0 2.91-1.894 4.346-4.41 6.253-1.17.887-2.482 1.88-3.792 3.185a.424.424 0 01-.595 0c-1.31-1.304-2.621-2.299-3.791-3.186C1.894 9.503 0 8.066 0 5.158A4.457 4.457 0 014.46.718c1.11 0 1.951.282 2.66.846.526.42.965.986 1.38 1.703zm1.903-1.05c-.577.458-1.049 1.169-1.528 2.122a.42.42 0 01-.75 0c-.478-.954-.95-1.664-1.526-2.123-.554-.44-1.23-.66-2.138-.66A3.614 3.614 0 00.842 5.157c0 2.496 1.752 3.824 4.08 5.587 1.106.84 2.337 1.773 3.578 2.966 1.242-1.193 2.473-2.127 3.58-2.966 2.326-1.763 4.079-3.092 4.079-5.587a3.614 3.614 0 00-3.619-3.603c-.91 0-1.585.22-2.137.661z"/></svg><svg viewBox="0 0 17 16" id="instagram" xmlns="http://www.w3.org/2000/svg"><path d="M5.154.432C2.627.432.57 2.399.57 4.816v6.263c0 2.417 2.057 4.384 4.585 4.384h6.547c2.527 0 4.583-1.968 4.583-4.385V4.815c0-2.417-2.057-4.383-4.584-4.383H5.154zm7.989 2.405c.347 0 .628.269.628.6a.616.616 0 01-.628.602.616.616 0 01-.629-.601c0-.332.282-.601.629-.601zM8.429 4.039c2.253 0 4.085 1.753 4.085 3.908 0 2.155-1.832 3.908-4.085 3.908-2.254 0-4.086-1.753-4.086-3.908 0-2.155 1.832-3.908 4.086-3.908zm0 1.203c-1.563 0-2.829 1.21-2.829 2.705 0 1.494 1.266 2.706 2.829 2.706 1.562 0 2.828-1.212 2.828-2.706S9.991 5.242 8.43 5.242z"/></svg><svg viewBox="0 0 15 16" id="linkedin" xmlns="http://www.w3.org/2000/svg"><path d="M15 .432H0v15.03h15V.433zM5 12.122H2.897V6.277H5v5.845zM3.912 5.206c-.643 0-1.072-.43-1.072-1.002 0-.573.428-1.002 1.143-1.002.642 0 1.071.429 1.071 1.002 0 .572-.428 1.002-1.142 1.002zm8.588 6.916h-2.035V8.927c0-.883-.543-1.087-.746-1.087-.203 0-.881.136-.881 1.087v3.195H6.735V6.277h2.103v.816c.27-.476.813-.816 1.83-.816 1.018 0 1.832.816 1.832 2.65v3.195z"/></svg><svg viewBox="0 0 32 35" id="logo" xmlns="http://www.w3.org/2000/svg"><path d="M27.363 22.555c-.03-.123-.054-.25-.094-.362a3.626 3.626 0 00-.772-1.363 3.57 3.57 0 00-2.016-1.12c.058-.634.113-1.367.16-2.175l.087-1.729.036-.935a4.966 4.966 0 000-.58l-.043-.32-.073-.314a3.622 3.622 0 00-2.95-2.595 10.5 10.5 0 00-1.215-.055 299.63 299.63 0 00-4.49-.032c-1.512 0-3.027 0-4.492.029a10.75 10.75 0 00-1.214.054 3.624 3.624 0 00-2.961 2.592 3.847 3.847 0 00-.116.637 4.724 4.724 0 000 .58l.036.936.087 1.729c.043.754.094 1.45.145 2.037a3.799 3.799 0 00-3.124 3.35v4.348c0 .116 0 .261.021.392.022.13.04.264.062.395A3.744 3.744 0 007.7 30.975c.127 0 .25 0 .363.019h.877l2.145-.033c-.975.975-1.942 2.537-1.997 3.418.124.13.263.244.414.34.12.099.25.181.391.247 1.087-.428 2.816-2.736 3.056-4.034 2.21-.04 4.258-.09 6.074-.149.116 1.258 1.929 3.734 3.067 4.18.16-.08.312-.177.45-.29.132-.084.254-.184.362-.298-.058-.964-1.196-2.71-2.247-3.653 1.05-.04 2-.08 2.841-.127a.471.471 0 00.363-.533.453.453 0 00-.363-.464c-3.36-.181-8.547-.312-14.553-.395H7.91a1.888 1.888 0 01-1.602-1.497l-.025-.196v-4.397a1.811 1.811 0 013.48-.478c.05.124.083.252.1.384.023.158.031.317.026.475v1.247a.989.989 0 001.023.993c3.519 0 6.937-.029 10.149-.065h.021a.918.918 0 00.917-.939v-1.45a1.935 1.935 0 013.331-1.366c.205.206.363.453.464.725l.062.206.04.21v.515l.058 2.236.032 1.048v.486c0 .121-.008.242-.025.363a2.254 2.254 0 01-.663 1.25 2.31 2.31 0 01-1.146.595.515.515 0 00-.3.543.414.414 0 00.427.417c.64-.056 1.249-.3 1.75-.7a3.386 3.386 0 001.194-1.816 3.86 3.86 0 00.083-.598c0-.203 0-.362.021-.525l.033-1.048.058-2.236v-.656c-.018-.113-.036-.24-.054-.374zm-5.513-2.337c-.51.329-.93.776-1.229 1.304a3.789 3.789 0 00-.464 1.78v.5c-2.65-.025-5.415-.043-8.253-.05v-.258a4.826 4.826 0 00-.043-.768 3.802 3.802 0 00-2.617-3.07 3.67 3.67 0 00-.635-.134 65.9 65.9 0 00.145-2.012l.087-1.729.036-.935a3 3 0 01.033-.38c.02-.111.047-.22.083-.327.16-.431.472-.79.877-1.008.211-.11.441-.178.678-.2.182-.02.606 0 .96 0 1.45.023 2.98.03 4.492.03 1.511 0 3.026 0 4.49-.033.363 0 .78-.021.961 0 .234.025.46.095.667.207.41.221.723.585.881 1.022l.05.163.033.167c.02.127.03.255.033.384l.036.935.084 1.726c.047.797.098 1.515.155 2.138a3.713 3.713 0 00-1.54.548z"/><path d="M25.384 7.51c.047-1.954.087-4.092.112-6.525a.929.929 0 00-.917-.939h-.018L20.904.01a.965.965 0 00-.972.96v1.89L16.602.216a.978.978 0 00-1.23 0c-6.14 5.02-11.877 9.87-14.86 12.65-.128.12-.08.391.104.598.185.207.392.265.519.174 3.219-2.262 8.88-6.633 14.85-11.382l4.295 3.466a.992.992 0 001.613-.776V1.96h1.747c.03 2.175.065 4.147.112 5.94v.044a.776.776 0 00.301.591c2.9 2.27 5.18 3.988 6.822 5.126.137.097.388 0 .55-.225.164-.225.171-.424.062-.53-1.416-1.333-3.45-3.132-6.104-5.396z"/></svg><svg viewBox="0 0 17 33" id="next" xmlns="http://www.w3.org/2000/svg"><path d="M17 16.5a.792.792 0 01-.224.558L1.324 32.768a.766.766 0 01-1.097 0 .797.797 0 010-1.114L15.14 16.5.227 1.346a.797.797 0 010-1.115.766.766 0 011.097 0l15.452 15.711c.145.148.225.35.224.558z"/></svg><svg viewBox="0 0 17 33" id="prev" xmlns="http://www.w3.org/2000/svg"><path d="M0 16.5a.792.792 0 01.224-.558L15.676.232a.766.766 0 011.097 0 .797.797 0 010 1.114L1.86 16.5l14.912 15.154a.797.797 0 010 1.115.766.766 0 01-1.097 0L.224 17.058A.792.792 0 010 16.5z"/></svg><svg viewBox="0 0 15 15" id="rotation" xmlns="http://www.w3.org/2000/svg"><path d="M7.158.913a.33.33 0 01-.301.333A6.478 6.478 0 00.635 7.738c0 2.031.936 3.92 2.54 5.158v-2.46c0-.175.142-.318.317-.318.174 0 .317.143.317.318v3.174a.318.318 0 01-.317.318H.317A.318.318 0 010 13.61c0-.174.143-.317.317-.317h2.334A7.164 7.164 0 010 7.738C0 3.897 3 .77 6.825.595c.175 0 .317.143.333.318zm4.476 1.27h2.333a.318.318 0 00.318-.318.318.318 0 00-.318-.317h-3.174a.318.318 0 00-.317.317v3.174c0 .175.142.318.317.318a.318.318 0 00.318-.318V2.58a6.496 6.496 0 012.54 5.159 6.508 6.508 0 01-6.191 6.507c-.175.016-.317.159-.302.334.016.174.143.301.318.301h.016a7.139 7.139 0 006.793-7.142 7.164 7.164 0 00-2.65-5.556z"/></svg><svg viewBox="0 0 18 19" id="search" xmlns="http://www.w3.org/2000/svg"><path d="M11.67 13.502a7.321 7.321 0 01-4.282 1.376C3.308 14.878 0 11.548 0 7.44 0 3.331 3.308 0 7.388 0s7.387 3.331 7.387 7.44a7.44 7.44 0 01-2.164 5.26l5.213 5.248a.614.614 0 01-.007.868.605.605 0 01-.862.007l-5.286-5.322h.001zm-4.282.501c3.6 0 6.518-2.939 6.518-6.564S10.988.875 7.388.875C3.788.875.869 3.815.869 7.44c0 3.625 2.919 6.564 6.519 6.564z"/></svg><svg viewBox="0 0 19 17" id="twi" xmlns="http://www.w3.org/2000/svg"><path d="M18.571 2.294a7.42 7.42 0 01-2.19.63A3.974 3.974 0 0018.058.721a7.416 7.416 0 01-2.421.964A3.719 3.719 0 0012.859.432c-2.105 0-3.81 1.78-3.81 3.974 0 .31.034.613.099.907-3.166-.167-5.974-1.752-7.853-4.156a4.085 4.085 0 00-.516 2.002c0 1.38.671 2.594 1.695 3.31a3.73 3.73 0 01-1.728-.497v.047c0 1.928 1.314 3.534 3.056 3.9a3.613 3.613 0 01-1.002.142 3.87 3.87 0 01-.718-.073c.485 1.575 1.892 2.727 3.559 2.761A7.456 7.456 0 010 14.395a10.493 10.493 0 005.841 1.783c7.008 0 10.841-6.057 10.841-11.312 0-.172-.005-.344-.013-.513a7.718 7.718 0 001.902-2.06z"/></svg></svg>