<svg width="19" height="17" fill="none" xmlns="http://www.w3.org/2000/svg"><path d="M18.571 2.294a7.42 7.42 0 01-2.19.63A3.974 3.974 0 0018.058.721a7.416 7.416 0 01-2.421.964A3.719 3.719 0 0012.859.432c-2.105 0-3.81 1.78-3.81 3.974 0 .31.034.613.099.907-3.166-.167-5.974-1.752-7.853-4.156a4.085 4.085 0 00-.516 2.002c0 1.38.671 2.594 1.695 3.31a3.73 3.73 0 01-1.728-.497v.047c0 1.928 1.314 3.534 3.056 3.9a3.613 3.613 0 01-1.002.142 3.87 3.87 0 01-.718-.073c.485 1.575 1.892 2.727 3.559 2.761A7.456 7.456 0 010 14.395a10.493 10.493 0 005.841 1.783c7.008 0 10.841-6.057 10.841-11.312 0-.172-.005-.344-.013-.513a7.718 7.718 0 001.902-2.06z" fill="#696969"/></svg>