<svg width="20" height="19" fill="none" xmlns="http://www.w3.org/2000/svg"><path d="M18.972 2.226H4.369l-.06-.208A2.158 2.158 0 002.244.458H.423a.424.424 0 100 .848h1.82a1.307 1.307 0 011.251.944l2.57 9.014a2.83 2.83 0 002.71 2.047h9.357a.424.424 0 100-.848H8.775a1.98 1.98 0 01-1.896-1.431l-.172-.602H16a3.399 3.399 0 003.396-3.396V2.65a.424.424 0 00-.424-.424zm-.424 4.808A2.55 2.55 0 0116 9.582H6.466l-1.334-4.68h9.164a.424.424 0 100-.847H4.89l-.28-.981h13.938v3.96zm-10.501 7.59a1.985 1.985 0 100 3.97 1.985 1.985 0 000-3.97zm0 3.121a1.137 1.137 0 110-2.273 1.137 1.137 0 010 2.273zm8.523-3.121a1.985 1.985 0 100 3.969 1.985 1.985 0 000-3.97zm0 3.121a1.137 1.137 0 110-2.273 1.137 1.137 0 010 2.273z" fill="#1B1A1A"/><path d="M15.985 4.78c.08.078.186.122.297.124a.427.427 0 00.395-.263.413.413 0 00-.094-.462.417.417 0 00-.598 0 .413.413 0 00-.093.462.44.44 0 00.093.14z" fill="#1B1A1A"/></svg>