<svg width="17" height="15" fill="none" xmlns="http://www.w3.org/2000/svg"><path d="M1.351.751a.376.376 0 010-.751h2.424c.167 0 .308.108.357.26l1.12 2.924h11.373a.376.376 0 01.352.504l-1.982 6.603a.376.376 0 01-.36.269H7.442a.523.523 0 00-.525.525v.01a.523.523 0 00.525.524h6.521a.376.376 0 010 .751h-6.52c-.352 0-.671-.143-.903-.374h.001v-.002a1.27 1.27 0 01-.375-.9v-.01a1.276 1.276 0 011.276-1.275h6.915l1.764-5.874H5.54l1.81 4.72a.375.375 0 11-.702.268L4.652 3.71a.405.405 0 01-.013-.034L3.518.75H1.35zm11.606 12.464a.833.833 0 110 1.666.833.833 0 010-1.666zm-5.048 0a.832.832 0 110 1.665.832.832 0 010-1.665z" fill="#fff"/></svg>