<svg width="17" height="15" fill="none" xmlns="http://www.w3.org/2000/svg"><path fill-rule="evenodd" clip-rule="evenodd" d="M8.5 3.267c.415-.717.854-1.285 1.38-1.703.709-.564 1.55-.847 2.66-.847A4.456 4.456 0 0117 5.157c0 2.91-1.894 4.346-4.41 6.253-1.17.887-2.482 1.88-3.792 3.185a.424.424 0 01-.595 0c-1.31-1.304-2.621-2.299-3.791-3.186C1.894 9.503 0 8.066 0 5.158A4.457 4.457 0 014.46.718c1.11 0 1.951.282 2.66.846.526.42.965.986 1.38 1.703zm1.903-1.05c-.577.458-1.049 1.169-1.528 2.122a.42.42 0 01-.75 0c-.478-.954-.95-1.664-1.526-2.123-.554-.44-1.23-.66-2.138-.66A3.614 3.614 0 00.842 5.157c0 2.496 1.752 3.824 4.08 5.587 1.106.84 2.337 1.773 3.578 2.966 1.242-1.193 2.473-2.127 3.58-2.966 2.326-1.763 4.079-3.092 4.079-5.587a3.614 3.614 0 00-3.619-3.603c-.91 0-1.585.22-2.137.661z" fill="#fff"/></svg>