<svg width="17" height="16" fill="none" xmlns="http://www.w3.org/2000/svg"><path d="M5.154.432C2.627.432.57 2.399.57 4.816v6.263c0 2.417 2.057 4.384 4.585 4.384h6.547c2.527 0 4.583-1.968 4.583-4.385V4.815c0-2.417-2.057-4.383-4.584-4.383H5.154zm7.989 2.405c.347 0 .628.269.628.6a.616.616 0 01-.628.602.616.616 0 01-.629-.601c0-.332.282-.601.629-.601zM8.429 4.039c2.253 0 4.085 1.753 4.085 3.908 0 2.155-1.832 3.908-4.085 3.908-2.254 0-4.086-1.753-4.086-3.908 0-2.155 1.832-3.908 4.086-3.908zm0 1.203c-1.563 0-2.829 1.21-2.829 2.705 0 1.494 1.266 2.706 2.829 2.706 1.562 0 2.828-1.212 2.828-2.706S9.991 5.242 8.43 5.242z" fill="#696969"/></svg>