<svg width="32" height="35" fill="none" xmlns="http://www.w3.org/2000/svg"><path d="M27.363 22.555c-.03-.123-.054-.25-.094-.362a3.626 3.626 0 00-.772-1.363 3.57 3.57 0 00-2.016-1.12c.058-.634.113-1.367.16-2.175l.087-1.729.036-.935a4.966 4.966 0 000-.58l-.043-.32-.073-.314a3.622 3.622 0 00-2.95-2.595 10.5 10.5 0 00-1.215-.055 299.63 299.63 0 00-4.49-.032c-1.512 0-3.027 0-4.492.029a10.75 10.75 0 00-1.214.054 3.624 3.624 0 00-2.961 2.592 3.847 3.847 0 00-.116.637 4.724 4.724 0 000 .58l.036.936.087 1.729c.043.754.094 1.45.145 2.037a3.799 3.799 0 00-3.124 3.35v4.348c0 .116 0 .261.021.392.022.13.04.264.062.395A3.744 3.744 0 007.7 30.975c.127 0 .25 0 .363.019h.877l2.145-.033c-.975.975-1.942 2.537-1.997 3.418.124.13.263.244.414.34.12.099.25.181.391.247 1.087-.428 2.816-2.736 3.056-4.034 2.21-.04 4.258-.09 6.074-.149.116 1.258 1.929 3.734 3.067 4.18.16-.08.312-.177.45-.29.132-.084.254-.184.362-.298-.058-.964-1.196-2.71-2.247-3.653 1.05-.04 2-.08 2.841-.127a.471.471 0 00.363-.533.453.453 0 00-.363-.464c-3.36-.181-8.547-.312-14.553-.395H7.91a1.888 1.888 0 01-1.602-1.497l-.025-.196v-4.397a1.811 1.811 0 013.48-.478c.05.124.083.252.1.384.023.158.031.317.026.475v1.247a.989.989 0 001.023.993c3.519 0 6.937-.029 10.149-.065h.021a.918.918 0 00.917-.939v-1.45a1.935 1.935 0 013.331-1.366c.205.206.363.453.464.725l.062.206.04.21v.515l.058 2.236.032 1.048v.486c0 .121-.008.242-.025.363a2.254 2.254 0 01-.663 1.25 2.31 2.31 0 01-1.146.595.515.515 0 00-.3.543.414.414 0 00.427.417c.64-.056 1.249-.3 1.75-.7a3.386 3.386 0 001.194-1.816 3.86 3.86 0 00.083-.598c0-.203 0-.362.021-.525l.033-1.048.058-2.236v-.656c-.018-.113-.036-.24-.054-.374zm-5.513-2.337c-.51.329-.93.776-1.229 1.304a3.789 3.789 0 00-.464 1.78v.5c-2.65-.025-5.415-.043-8.253-.05v-.258a4.826 4.826 0 00-.043-.768 3.802 3.802 0 00-2.617-3.07 3.67 3.67 0 00-.635-.134 65.9 65.9 0 00.145-2.012l.087-1.729.036-.935a3 3 0 01.033-.38c.02-.111.047-.22.083-.327.16-.431.472-.79.877-1.008.211-.11.441-.178.678-.2.182-.02.606 0 .96 0 1.45.023 2.98.03 4.492.03 1.511 0 3.026 0 4.49-.033.363 0 .78-.021.961 0 .234.025.46.095.667.207.41.221.723.585.881 1.022l.05.163.033.167c.02.127.03.255.033.384l.036.935.084 1.726c.047.797.098 1.515.155 2.138a3.713 3.713 0 00-1.54.548z" fill="#1B1A1A"/><path d="M25.384 7.51c.047-1.954.087-4.092.112-6.525a.929.929 0 00-.917-.939h-.018L20.904.01a.965.965 0 00-.972.96v1.89L16.602.216a.978.978 0 00-1.23 0c-6.14 5.02-11.877 9.87-14.86 12.65-.128.12-.08.391.104.598.185.207.392.265.519.174 3.219-2.262 8.88-6.633 14.85-11.382l4.295 3.466a.992.992 0 001.613-.776V1.96h1.747c.03 2.175.065 4.147.112 5.94v.044a.776.776 0 00.301.591c2.9 2.27 5.18 3.988 6.822 5.126.137.097.388 0 .55-.225.164-.225.171-.424.062-.53-1.416-1.333-3.45-3.132-6.104-5.396z" fill="#1B1A1A"/></svg>