<svg width="15" height="15" fill="none" xmlns="http://www.w3.org/2000/svg"><path d="M7.158.913a.33.33 0 01-.301.333A6.478 6.478 0 00.635 7.738c0 2.031.936 3.92 2.54 5.158v-2.46c0-.175.142-.318.317-.318.174 0 .317.143.317.318v3.174a.318.318 0 01-.317.318H.317A.318.318 0 010 13.61c0-.174.143-.317.317-.317h2.334A7.164 7.164 0 010 7.738C0 3.897 3 .77 6.825.595c.175 0 .317.143.333.318zm4.476 1.27h2.333a.318.318 0 00.318-.318.318.318 0 00-.318-.317h-3.174a.318.318 0 00-.317.317v3.174c0 .175.142.318.317.318a.318.318 0 00.318-.318V2.58a6.496 6.496 0 012.54 5.159 6.508 6.508 0 01-6.191 6.507c-.175.016-.317.159-.302.334.016.174.143.301.318.301h.016a7.139 7.139 0 006.793-7.142 7.164 7.164 0 00-2.65-5.556z" fill="#fff"/></svg>